<svg xmlns="http://www.w3.org/2000/svg" version="1" viewBox="0 0 204.8 200.6">
  <path d="M109.7.6c-2 .8-26.7 35-29.5 41.2-3.7 7.7-4.5 16.8-2.3 23.4 2 6 2 6-1.5 1.5-3.7-5-9.2-9-16.8-11.6C54 53.3 52 53 29 53H4.3L2 55.5C0 57.6-.3 59 0 61c.8 3.4 24.2 34.5 30.6 40.5 6.4 6 12 8.3 20.7 9l7 .5-5.8 2.2c-7.4 2.7-14 8.7-18 16-3 5.8-16 43-16 46 0 1 .8 2.7 2 4.2 1.4 1.7 2.8 2.4 5.2 2.4 4.4 0 40.5-11.6 47.5-15.3 7.2-3.8 14-11.3 16.4-18.2l1.8-5.4v5.2c.2 3 1 7.6 2 10.2 3.4 9 8 13.7 25 25.8 25.8 18.5 25 18 29.8 14.4l2.5-2v-23.5c0-24.7-.6-29-4.5-36.8-2-4-5.5-8-10-11.5-2-1.4-2.2-2-1-1.5 9.7 3.2 18.5 2.7 28-1.7 6.2-2.8 39.7-26.4 41-29 1.4-2.5.2-7-2.3-8.8-1.4-.7-11-4-22-7.6-16.5-5-20.8-6-28.2-6.5-10.4-.5-15.4.6-22 5.2L125 78l2.5-3.3c4.8-6.2 6.6-11.8 6.6-20.4 0-7.4-.4-9.5-7-29.7-5.5-16-8-22.2-9.4-23.3-2-1.4-5.5-1.7-8-.7zm-3.3 69.6c.8 1.5 1.2 4.5 1 8.5-1 16-11 23-11.8 8.3-.4-6.7.7-12 3.5-16.6 2.4-3.7 5.5-3.7 7.4-.2zM77.2 88.4c5 2.4 11.6 8.2 11.6 10.2 0 4-5.6 4.5-13.6 1.5s-15-10.4-12-13.2c1.4-1.5 9.5-.5 14 1.6zm57.4 8.6c2.4 1.6 2.6 2.6.5 4.6-5.5 5.7-22 7.6-26.2 3-5.6-6 17.2-13 25.8-7.6zm-44 16.2c2.6 5-11.3 19.8-18.6 19.8-4.7 0-3.4-6.6 2.7-13.4 6.8-7.4 13.8-10.3 16-6.4zm18.8 4.7c6.5 6.5 9.7 17.7 6 20.7-5.2 4.4-18.2-16.4-14.5-23.4 1.6-3 3.7-2.3 8.4 2.6z" fill="#fff"/>
</svg>
