<svg xmlns="http://www.w3.org/2000/svg" viewBox="0 0 256 256">
  <g fill="#fff">
    <path d="M256 128c0-33.5-28.2-60.7-63-60.7-3.3 0-6.7.2-10 .7-26.8 4-45 23.3-55 38-10.2-14.7-28.2-34-55-38-3.3-.5-6.7-.7-10-.7-34.6 0-63 27.2-63 60.7s28.2 60.7 63 60.7c3 0 6.5-.2 9.6-.7 27-4 45.2-23.3 55.2-38 10.2 14.7 28 34 55 38 3.2.5 6.6.7 9.8.7 35.2.3 63.4-27 63.4-60.7zM69.7 167l-6.6.3c-22.7 0-41.4-17.7-41.4-39.3 0-21.6 18.7-39.3 41.5-39.3 2.3 0 4.5.2 6.7.4 25.5 3.8 41 28.8 46.4 39-5.2 10.2-20.8 35.2-46.3 39zm70.2-39c5.2-10 20.8-35.2 46.3-39l6.6-.3c22.7 0 41.4 17.7 41.4 39.3 0 21.6-18.7 39.3-41.5 39.3-2.3 0-4.5-.2-6.7-.4-25.5-3.8-41-28.8-46.4-39z"/>
    <path d="M45.7 122.2v12h38v-12h-38M210 122.2H197v-13h-12.4v13h-12.6v12h12.6v13h12.4v-13H210v-12"/>
  </g>
</svg>
