<svg xmlns="http://www.w3.org/2000/svg" viewBox="0 0 270.9 256">
  <g fill="#fff" clip-path="url(#a)" transform="matrix(.78545 0 0 -.78545 -71.694 329.075)">
    <path d="M436.2 378c-22.4 3.2-46.2 2.5-71-3 5.2-5.6 11.4-11.2 16-17.3 10.8 6.5 44.7 18.5 55 20.3M177.6 368.5c40 26.3 82.6 28.6 125.6 10.2 18.5-8 35.5-10 54.7-5.4l7.3 1.6C336 402 297 419 254 419c-86.6 0-157.6-67.8-162.7-153l2 3.6c19 40.7 46.4 74 84.3 99M353.2 342c-7.7-6-17.8-13.3-23.8-21-21.7-27.5-15.8-51.5-8-68.2 10.5-21.6 40.4-70.4 46.7-113 30.2 29.6 49 70.7 49 116.2 0 38.5-13.5 73.8-36 101.7-9.7-4.3-19-9.3-27.8-15.8"/>
    <path d="M325.3 165c-12.7 33.4-26.4 61-55.8 88.6-1.7 1.7-23 20-46 21-41.8 2.2-64.7 46.5-63 62.7-22.4-16.7-36-37.7-43.8-51.8-5-9-1-13.3 9-14 8.3-.7 16.8-1.4 25-3.6 49.5-12 79-59 87-83.2-3.6 2.5-35.7 45.8-82.5 58-19.8 7.2-40 9.4-57.7-6.4-2.2-2-3.7-3.8-4.5-6C105.2 152.8 172.7 93 254 93c29.4 0 57 8 81 21.7.7 1.3 1 2.7 1 3.8-2 11.8-7.2 35-10.7 46.4M235.4 347c-.2-8 6.5-15 14.5-15 8-.2 14.7 6.5 14.6 14.7 0 8-6.2 14.3-14 14.5-8.3.2-15-6.2-15.2-14.3"/>
  </g>
</svg>
