<svg xmlns="http://www.w3.org/2000/svg" width="256.512" height="256" viewBox="0 0 256.512 256"><path fill="#fff" d="M127.102.003C101.955.19 76.897 7.918 54.837 23.168-9.52 67.658-18.795 159.62 35.335 216.51c18.8 19.76 44.79 33.738 70.887 38.128 12.59 2.117 35.532 1.713 47.978-.845 32.34-6.646 62.244-26.728 80.54-54.083 39.433-58.957 23.816-138.596-34.83-177.618C177.486 7.172 152.25-.183 127.102.002zm1.325 18.537c55.938-.02 105.793 43.176 109.076 104.245 1.077 20.023-2.054 35.022-11.344 54.354-12.2 25.37-36.69 46.33-64.69 55.36-15.32 4.94-41.23 6.34-55.6 3.01-33.93-7.85-60.94-28.806-75.5-58.57-9.22-18.85-12.39-33.88-11.38-54.097 2.11-42.4 27.67-79.29 66.14-95.454 14.38-6.043 29.03-8.855 43.29-8.86zm7.886 13.75c-5.275 0-11.137 2.288-11.137 4.344 0 .63 2.668.89 5.93.58 9.673-.923 13.75 6.016 9.288 15.81-1.367 3-1.325 4.426.188 6.25 2.59 3.12 5.176 2.982 8.275-.443 8.738-9.65.757-26.54-12.544-26.54zm36.382 12.376c-.613.064-.626 1.248.348 3.81.856 2.252 1.556 7.23 1.556 11.062 0 5.643-.86 7.827-4.52 11.483-3.8 3.81-5.75 4.52-12.34 4.52-6.46 0-10.47-1.4-22.9-7.99-31.96-16.93-29.22-15.95-44.42-15.95-14.83 0-22.27 2.45-32.437 10.66-6.9 5.573-3.77 6.37 5.637 1.44 7.166-3.755 10.01-4.33 21.39-4.332 14.54-.003 17.71 1.202 37.14 14.122 21.408 14.232 38.786 17.9 48.936 10.32 10.924-8.158 13.847-19.83 7.852-31.36-2.545-4.89-5.23-7.89-6.25-7.78zM72.575 72.58c-1.458-.005-2.994.043-4.62.135-8.724.493-11.774 1.42-17.21 5.24-6.292 4.423-13.604 13.31-13.604 16.532 0 .828 1.57.356 3.48-1.047 21.62-15.87 44.88-8.462 50.47 16.074.87 3.823 1.61 20.156 1.648 36.296.064 30.987 1.78 43.156 7.74 54.836 6.057 11.873 15.074 19.864 26.244 23.26 5.37 1.635 10.82 1.702 10.82.134 0-.72-2.795-2.57-6.21-4.11-9.23-4.162-17.86-14.372-21.098-24.965-2.215-7.25-2.63-12.904-2.125-29.077.343-11.043.68-30.503.743-43.245.134-26.362-1.264-30.906-12.695-41.233-6.98-6.307-13.37-8.8-23.57-8.83zm81.6 76.04c-12.083.288-22.013 8.266-26.09 23.294-3.725 13.742 1.924 36.56 10.434 42.135 8.56 5.61 20.99 5.49 34.06-.33 4.41-1.97 11.14-6.69 14.95-10.5 13.762-13.77 12.823-26.56-3.01-41.03-10.26-9.38-20.96-13.8-30.357-13.58zm.752 19.464c7.376-.007 14.845 4.553 18.104 12.42 4.76 11.49-4.75 24.768-17.73 24.768-5.44 0-7.95-.975-12.25-4.75-9.33-8.193-8.914-20.154.99-28.487 3.196-2.69 7.034-3.947 10.9-3.95z"/></svg>