<svg xmlns="http://www.w3.org/2000/svg" width="256" height="249.7">
  <path fill="#fff" d="M128 0C57.3 0 0 57.3 0 128c0 56.6 36.7 104.5 87.5 121.5 6.4 1 8.8-2.8 8.8-6.2 0-3 0-13-.2-23.8-35.5 7.7-43-15-43-15-6-15-14.2-18.8-14.2-18.8-11.7-8 .8-7.8.8-7.8 13 .8 19.7 13 19.7 13 11.4 19.6 30 14 37.2 10.7 1.2-8.3 4.5-14 8-17-28.3-3.3-58.2-14.3-58.2-63.4 0-14 5-25.4 13.2-34.3-1.3-3.3-5.7-16.3 1.3-34 0 0 10.7-3.4 35.2 13.2 10.2-2.8 21-4.2 32-4.3 11 0 21.8 1.4 32 4.2 24.5-16.6 35.2-13 35.2-13 7 17.5 2.6 30.5 1.3 33.8 8.2 9 13.2 20.3 13.2 34.3 0 49.2-30 60-58.5 63.2 4.6 4 8.7 11.8 8.7 23.7 0 17-.3 31-.3 35 0 3.5 2.3 7.5 8.8 6.3 51-17 87.5-65 87.5-121.5C256 57.3 198.7 0 128 0z"/>
</svg>
