<svg xmlns="http://www.w3.org/2000/svg" width="256" height="236" version="1"><g fill="none" fill-rule="evenodd"><path d="M256 135l-15-44-28-88c-2-4-8-4-9 0l-29 88H81L52 3c-1-4-7-4-9 0L15 91 0 135c-1 4 1 8 4 11l124 90 124-90c3-3 5-7 4-11" fill="#fc6d26"/><path d="M128 236l47-145H81z" fill="#e24329"/><path d="M128 236L81 91H15z" fill="#fc6d26"/><path d="M15 91L0 135c-1 4 1 8 4 11l124 90z" fill="#fca326"/><path d="M15 91h66L52 3c-1-4-7-4-9 0z" fill="#e24329"/><path d="M128 236l47-145h66z" fill="#fc6d26"/><path d="M241 91l15 44c1 4-1 8-4 11l-124 90z" fill="#fca326"/><path d="M241 91h-66l29-88c1-4 7-4 9 0z" fill="#e24329"/></g></svg>