<svg xmlns="http://www.w3.org/2000/svg" width="289.9" height="264.1" version="1">
  <g fill="#fff" fill-rule="evenodd">
    <path d="M37 0c-3.5 0-6.7.5-10 1.4L50.4 22l-26 28.7-23.6-21C.3 32 0 34.5 0 37c0 20.3 16.6 37 37 37 3.8 0 7.6-.8 11-2l30 26.6c5.6-12.4 14-23 24.3-30.7L73.5 42.3c.2-1.8.4-3.6.4-5.5v-.3C73.6 16.4 57 0 37 0zm177.4 167c-4.7 13-12.3 24.2-22 32.8l24 21.3c-.2 2-.4 4-.4 6.2 0 20.4 16.6 37 37 37 3.6 0 7.2-.6 10.5-1.6l-24-21.4 25.8-28.6 24 21.3c.4-2.3.6-4.5.6-6.8v-.3c-.3-20.4-16.8-36.8-37-36.8-3.8 0-7.3.6-10.7 1.6l-28-24.7zM253 0c-20.3 0-36.8 16.4-37 36.7v.2c0 1.8 0 3.6.4 5.4L187.6 68c10.2 7.7 18.6 18.2 24.3 30.6L241.7 72c3.5 1.2 7.2 2 11 2 20.5 0 37-16.7 37-37 0-2.5-.2-5-.6-7.3l-23.7 21-26-28.8L263 1.3c-3.2-1-6.5-1.4-10-1.4zM75.3 167L47.6 192c-3.4-1-7-1.6-10.7-1.6-20.3 0-36.8 16.4-37 36.7v.2c0 2.3.2 4.5.6 6.7l24-21.4 25.8 28.6-24 21.4c3.3 1 7 1.5 10.5 1.5 20.3 0 37-16.4 37-36.8 0-2-.3-4-.7-6l24-21.4c-9.5-8.6-17-20-22-32.7z" overflow="visible"/>
  </g>
  <path fill="#fff" d="M145 59.6c-38.2 0-69 34.2-69 76.4 0 26 11.8 49.2 29.8 63-1.2 2-2 4.4-2 7 0 7.3 6 13.4 13.4 13.4 7.3 0 13.2-6 13.2-13.5v-1.7h1.7v2c0 7.3 5.8 13 13 13 7 0 13-5.7 13-13 0-.6 0-1.3-.2-2h2.3v2c0 7.3 5.8 13 13 13 7 0 13-5.7 13-13 0-2.6-1-5-2.2-7 18.2-13.8 30-37 30-63.3 0-42.2-30.8-76.4-69-76.4zm-29.7 57c4 0 7.8 1.2 11 3.2 3 2 5 5 6.8 8 1.6 3.8-.5 8.2-3.5 10.5-2.4 1.6-4.6 3.5-7.4 4.3-3.3 1-6.5 2.7-9.7 4.2-1.5 1-2.7 2.2-3 4-1.2 1.8-.2 4-1.4 5.8-2 1.3-4-.3-5.4-1.4-3-2.3-5.8-5.5-6.6-9.4-.6-3.3-1.3-6.6-1-10 0-4 2-7.8 4.6-11 2.8-3.8 7-7 11.8-7.7 1.3-.2 2.6-.4 4-.4zm59.3 0c1.3 0 2.6.2 3.8.5 5 .7 9 4 12 8 2.4 3 4.4 6.7 4.4 10.8.4 3.4-.3 6.7-1 10-.7 4-3.4 7-6.6 9.4-1.4 1-3.4 2.7-5.3 1.4-1.3-1.7-.2-4-1.3-5.8-.4-1.8-1.6-3-3.2-4-3-1.5-6.3-3-9.7-4.2-2.8-.8-5-2.7-7.4-4.3-3-2.3-5-6.7-3.7-10.5 1.7-3 4-6 6.8-8 3.3-2 7.2-3.2 11-3.2zM145.2 156c3.7 0 7.3 15.3 6.4 21.3-3 9-2.5-6-6.4-6-4 0-5 14.8-7 6-.6-6.5 3.6-21.5 7-21.4z"/>
</svg>
