<svg xmlns="http://www.w3.org/2000/svg" id="Layer_1" width="256" height="256" viewBox="0 0 256 256"><style id="style3"/><path id="path5" fill="#fff" d="M159.3 139.4c-7.7-2.2-15-4.7-15-14.3 0-10 5.6-17 16.2-17 5 0 9 2.5 12.3 6 4 4.4 5.5 12.4 7 18h2.2v-23h-1.7l-3.4 3c-4.8-4.4-11.8-6.4-18-6.4-13.2 0-24 8.7-24 22.4 0 14.7 7.8 18.6 20.4 22.8 8.4 3 18.6 4.5 18.6 15.8 0 5.5-3 16-18 16-13.8 0-19.7-10.5-21.2-22.4h-2.2v23h1.4l4.3-4c5.7 3.7 12.2 5.7 19 5.7 14.3 0 26.5-6.2 26.5-22 .2-15-12.5-20-24.5-23.6" class="st0"/><path id="path7" fill="#fff" d="M226 182.5c-8.8 0-16-5.3-20-11.7-5-8-7-14.7-7-24.4 0-7.2 1-15.7 4.2-22.3 4.3-9 13.2-16.2 23.4-16.2 15.5 0 25 12.4 27.2 27h2v-26H254l-3.5 4.7c-7.6-4.7-14.7-8-23.7-8-23.4 0-40 16.8-40 40 0 24 15 39.2 39 39.2 9.2 0 17.6-3 25-8.2l3 5.4h2.2V157h-2c-2.7 13.8-12.5 25.3-28 25.3" class="st0"/><path id="path9" fill="#fff" d="M138.3 106.6h-24v2.2c5.6.4 9 .6 10.7 3.7l6.6-1.8c1.6-1.3 3.8-2 6.7-2v-2z" class="st0"/><path id="path11" fill="#fff" d="M125 112.5c.7 1.2 1 3 1 5v40.3c0 13-4.2 24.7-22.6 24.7C85 182.5 82 169.8 82 162v-44.4c0-6 1.4-8.8 9.8-8.6v-2.2H44.6l-24 30.8h-.4V71H0v113h20.2v-37.6h.2l26 37.7H72l-32.6-43 6.3-7.5L66 109c4 .6 4.6 2.5 4.6 8.2v41.6c0 14 6.5 26 29 26 23.4 0 29.3-11.7 29.3-27.2v-40.2c0-3.3 1-5.3 2.6-6.7l-6.6 1.8z" class="st0"/></svg>