<svg xmlns="http://www.w3.org/2000/svg" viewBox="0 0 256 256">
  <path fill="none" stroke="#fff" stroke-width="12.8385" d="M249.6 128A121.6 121.6 0 0 1 128 249.6 121.6 121.6 0 0 1 6.4 128 121.6 121.6 0 0 1 128 6.4 121.6 121.6 0 0 1 249.6 128z"/>
  <path fill="#fff" d="M128 13.3zm11.4.6zm12.4 14.4c-2.5 0-5 2-5.5 4.6-1 3.2 1 6.5 4.3 7.3 15.6 4 30 12.2 41.4 23.7 11.5 11.4 19.7 25.7 23.7 41.3.7 2.8 3 4.6 5.8 4.6l1.5-.3c3.3-.8 5.2-4 4.4-7.4-4.6-17.7-13.8-34-26.8-47s-29.3-22-47-26.7c-.6-.2-1.2-.2-1.8-.2zM48.2 45.6a114.7 114.7 0 0 0-.2.2l.2-.2zm162 2.4l.2.2a114.7 114.7 0 0 0-.2-.2zm-64.4 3.8c-2.5 0-5 2-5.5 4.5-1 3.3 1 6.6 4.3 7.4 11.4 3 22 9 30.3 17.3 8.4 8.5 14.4 19 17.3 30.4.7 2.7 3.2 4.5 6 4.5.3 0 1 0 1.4-.3 3.2-.8 5-4 4.3-7.3-3.5-13.5-10.6-26-20.5-36-10-9.8-22.4-17-36-20.4-.5-.2-1-.2-1.7-.2zM128 74.5c-13.6 0-27.4 5.2-37.8 15.7-21 21-21 55 0 75.8 21 21 55 21 75.8 0 21-21 21-55 0-75.8-10.5-10.5-24.2-15.7-38-15.7zm0 15.2c10 0 19.7 3.7 27.2 11.2 15 15 15 39.2 0 54.2s-39.3 15-54.3 0-15-39.3 0-54.3c7.4-7.6 17.2-11.3 27-11.3zm.2 30.8c-4.2 0-7.7 3.5-7.7 7.7s3.5 7.6 7.7 7.6 7.6-3.4 7.6-7.6c0-4.2-3.4-7.7-7.6-7.7zm-70 19.6c-.6 0-1.3 0-2 .3-3 .8-5 4-4.2 7.3 3.5 13.6 10.6 26 20.5 36 10 9.8 22.3 17 36 20.4l1.4.2c2.6 0 5-1.8 5.7-4.5.8-3.3-1-6.6-4.3-7.4-11.5-3-22-9-30.4-17.3-8.4-8.5-14.4-19-17.3-30.4-.7-2.6-3-4.4-5.5-4.5zm-24 6l-1.2.3c-3.3.8-5.2 4-4.4 7.4 4.6 17.7 13.8 34 26.8 47s29.2 22 47 26.7l1.4.2c2.7 0 5.2-1.8 6-4.5.7-3.2-1.2-6.5-4.5-7.3-15.6-4-30-12.2-41.3-23.7-11.5-11.4-19.7-25.7-23.7-41.3-.7-3-3.3-4.7-6-4.6zm181.6 56zm-170.2 5.8a114.7 114.7 0 0 0 .3.3c-.2 0-.3 0-.4-.2zM208 210c0 .2 0 .3-.2.4a114.7 114.7 0 0 0 .2-.3zm-154 5.7a114.7 114.7 0 0 0 .2 0zm62.5 26.4zm11.5.7z"/>
</svg>
