<svg xmlns="http://www.w3.org/2000/svg" id="svg2" width="256" height="351.7" fill-rule="evenodd" viewBox="0 0 7224.9 9924.8" clip-rule="evenodd" image-rendering="optimizeQuality" shape-rendering="geometricPrecision" text-rendering="geometricPrecision"><defs id="defs4"><style id="style6"><![CDATA[
    .fil1 {fill:#D1D1D1}
    .fil0 {fill:white}
   ]]></style></defs><g id="Warstwa_x0020_1"><path id="path10" fill="#fff" d="M377.5 2918.2C-172.3 3426-19 3384 197.3 3777.5 413.6 4171 783 4459.5 1708.5 4009c925.5-451 1171.8-400 1553.5-309.7 381.5 90 477.6 273.4 501.7 471.7 24 198.4-559 682-1202 1301C1919 6088 1354 6202.3 1441.2 7488c90.3 1286 57.2 1577.5-126 1778.8C1132 9468 4542 10057 4983.7 9855.8c441.7-204.4 1631.5-165.4 1397-1382.2-234.2-1219.8-624.8-2704-30-3719.6 595-1015.6 1196-3130.8-1583.3-4275.5C1988-666.2 3090.6 583.7 2820.2 728c-270.4 141-363.5 171.2-525.8 249.3-294.4 141.2-1391 1457.2-1920 1944z" class="fil0"/><path id="rect12" fill="#fff" d="M563.8 8509.7h6661v613H564z" class="fil0"/><path id="rect14" fill="#fff" d="M1071.6 8951.3H6735V9411H1071.7z" class="fil0"/><path id="rect16" fill="#fff" d="M551.8 9312h6661v612.8H552z" class="fil0"/><path id="path18" fill="#d1d1d1" d="M2742 3717.4s255.5-372.6 787.3-393.6c528.8-21 225.3-994.5 225.3-994.5s682 880.3 682 1334c0 453.7-718 652-718 652s-90-546.8-973.5-601z" class="fil1"/><path id="path20" fill="#d1d1d1" d="M5758.7 1013.3s1277 715 664 2529.8c-613 1815-1682.7 2750-1496.3 3684 186.3 934.8 27 1094 93.2 1175 66 81 279.4 81 585.8-12 306.5-93 252.4 132 279.5 267.6 27 132 216 1264.8 216 1264.8h1109v-613h-478v-189h490v-613h-833s-285-1346.6-348-2188c-63-841 174.4-1364 511-1962 333.4-600.7 694-2334.4-796.3-3344z" class="fil1"/><path id="polygon22" fill="#d1d1d1" d="M6738.2 9312H1074.6v-189.4h5663.6z" class="fil1"/></g></svg>