<svg xmlns="http://www.w3.org/2000/svg" width="256" height="257.4" viewBox="0 0 256 257.4"><title>Octopart Logo</title><path fill="#fff" fill-rule="evenodd" d="M167.3 128.7c0 20.5-17.6 37.2-39.3 37.2-21.7 0-39.2-16.8-39.2-37.3 0-20.5 17.5-37.2 39.2-37.2 21.7 0 39.3 16.7 39.3 37.2zm88.7 23.6V105h-43.8c-2-7-4.5-13.4-8-19.6l31-31L201.8 21l-30.5 30.6c-6.2-3.7-13-6.6-20-8.6V0h-47v43c-7 2-13.8 5-20 8.6L54 21 21 54.4l30.8 31c-3.4 6.2-6 12.7-8 19.7H0v47.3h43.8c2 7 4.6 13.5 8 19.7l-31 31 33.3 33.3 30.5-30.5c6.2 3.7 13 6.5 20 8.6v43h47v-43c7-2 13.8-5 20-8.6l30.4 30.5 33-33.3-30.7-31c3.4-6.2 6-12.8 8-19.7z"/></svg>