<svg xmlns="http://www.w3.org/2000/svg" width="220.8" height="256" enable-background="new 0 0 542 157"><defs><filter id="a" width="299.2" height="156.7" x="0" y=".3" filterUnits="userSpaceOnUse"><feColorMatrix values="1 0 0 0 0 0 1 0 0 0 0 0 1 0 0 0 0 0 1 0"/></filter><mask id="b" width="299.2" height="156.7" x="0" y=".3" maskUnits="userSpaceOnUse"><path fill="#fff" d="M299.2 156.9H.1V.3h299.1z" filter="url(#a)"/></mask></defs><path fill="#fff" d="M135.2 5.2C114-3.1 37.3-6.1 37.2 39.7 14.8 54 0 77.3 0 102.3a54.7 54.7 0 1 0 54.8-54.7 79.7 79.7 0 0 0-27.4 31.8 36.2 36.2 0 0 1 33.2-12.6 36 36 0 1 1-33.2 59 42.4 42.4 0 0 1-10.4-36c6.9-42.4 57.2-66.5 94.6-75.8C99.4 20.5 77.4 31.1 62 42.6c44.9 17.4 52.2-20.5 73.2-37.4z" mask="url(#b)" transform="translate(0 -.5) scale(1.63346)"/></svg>