<svg xmlns="http://www.w3.org/2000/svg" viewBox="-176 81 139.999 140.002"><path fill="#fff" d="M-73.72 115.241c-6.1 0-6.1-9.3 0-9.3 6 0 6 9.3 0 9.3m0 15.8c-6.1 0-6.1-9.3 0-9.3 6 0 6 9.3 0 9.3m-7.7 61.4c-13.1 10.1-38.4 12.1-51.9 2.2-5.4-4.4-10.5-9-10.3-15.7.5-17.9 30.4-10.3 23.2 3.1-3 4.7-10.1 4.7-14.7 2.9 8 11.7 29.7 11.4 38.9 1.2 4.6-5.1 5.1-11.9 4.6-18.7-.7-8-4.2-13.2-9.1-19.1 3-2.2 4.4-3.3 7.3-5.6 21.2 5.1 32.8 33.6 12 49.7m-42.3-91.2c14.1-8 40.5-2.7 41.4 16.5.8 17-20.1 28.4-32.7 35.3l-3.3-3.3c11.3-8.5 23.9-23.7 18.3-38.9-3.8-10.4-21.1-10.2-25.7-.5 4.3-1.5 10.5-1.7 13.8 2 3.5 3.9 1.4 10.1-2.9 12.3-6.8 3.5-18.7.5-19.2-8.3-.1-6.6 4.5-12.2 10.3-15.1m26.6-19.7c-37.5-4.8-73.4 22.9-78.3 60.4-5 37.5 22.9 73.5 60.4 78.5 37.5 4.9 73.6-22.9 78.5-60.4 4.7-37.6-23.1-73.8-60.6-78.5"/></svg>