<svg xmlns="http://www.w3.org/2000/svg" viewBox="0 0 560.5 715.7">
  <path fill="#fff" d="M151.7 0c-3.6 0-7.5 1.5-12 5C129 .7 118.5-.8 109.2 7.7c-14.4-2-19.2 2-22.7 6.6C83 14.4 62.5 11 53 25.2c-23.8-2.8-31.3 14-22.8 29.7-4.8 7.4-10 14.8 1.5 29-4 8-1.5 16.8 8 27.3-2.6 11.2 2.3 19 11 25.3C49.3 152 65 161 69.8 164c1.7 9 5.5 17.4 23.4 22 3 13.4 14 15.7 24.4 18.5-34.6 20-64.2 46.6-64 111.4l-5 9C8.6 349-27 426.5 28.7 489.5c3.6 19.7 9.7 33.8 15.2 49.5 8 63 61.2 92.7 75.2 96.2 20.5 15.6 42.3 30.4 72 40.8 27.8 28.8 58 39.7 88.4 39.7h1.3c30.3 0 60.5-11 88.3-39.7 29.6-10.4 51.5-25.2 72-40.8 14-3.5 67-33 75.2-96.2 5.4-15.7 11.5-29.8 15.2-49.5 55.7-63 20-140.5-19.5-164.6l-5-9c0-65-29.6-91.4-64-111.5 10.3-2.8 21-5 24-18.4 18-4.6 21.8-13 23.6-22 4.7-3 20.5-12 18.8-27.4 8.8-6.2 13.7-14 11.2-25.3 9.5-10.5 12-19.2 8-27.2C540 70 535 62.5 530.2 55c8.5-15.8 1-32.6-22.7-29.8-9.5-14-30-11-33.3-10.8-3.6-4.6-8.3-8.5-22.8-6.6-9.4-8.5-20-7-30.7-3-13-10-21.4-2-31 1.2-15.7-5-19.2 2-27 4.7-17-3.6-22 4.3-30.2 12.5L323 23c-25.6 15-38.3 45.8-42.8 61.6C275.7 68.8 263 38 237.4 23l-9.5.2c-8.2-8.2-13.4-16-30.4-12.5C190 8 186.4 1 171 6c-6.5-2-12.4-6.2-19.3-6zm257.7 18c-3.6 4.5-8.6 8.8-3.3 14 7.4-4.7 14.7-9.3 32-12.6-4 4.4-12 8.8-7 13.2 9-3.5 19-6 30.3-7.6-5.4 4.5-9.8 8.8-5.5 12.3 9.8-3 23.2-7.2 36.4-3.6l-8.3 8.5c-1 1 19.3 1 32.8 1-5 7-10 13.7-13 25.6 1.5 1.3 8 .6 14.4 0-6.4 13.7-17.6 17.2-20.2 23 4 3 9.4 2.3 15.3.3-4.6 9.8-14.3 16.4-22 24.3 2 1.4 5.3 2.2 13.4 1.3-7 7.6-15.7 14.6-26 21 2 2 8 2 13.8 2-9.2 9.3-21 14-32 20 5.4 3.8 9.4 3 13.6 3-7.8 6.5-21 10-33.5 13.8 2.3 3.7 4.7 4.8 9.7 5.8-13 7.4-32 4-37.2 7.8 1.3 3.7 5 6 9.2 8-21 1.4-79-.7-90-45 21.6-24.2 61-52.6 129-87.6-52.8 18-100.5 42-140.4 75-47-22.3-14.6-78.3 8.3-100.5 1.3 5.8 2.6 9.5 4 10.6 7.5-8 13.6-16.4 23.2-24.2 0 4.5-2.3 9.5 3.5 13.2 5-7 12-13.3 21.3-18.7-4.5 7.7-.8 10 1.6 13.3 7-6 13.8-12.3 26.8-17.2zm-256.8 0c13 5 19.7 11.2 26.8 17.3 2.4-3.2 6-5.6 1.6-13.4 9.2 5.3 16.2 11.5 21.3 18.6 5.8-3.7 3.4-8.7 3.5-13.2 9.6 7.8 15.7 16 23 24.2 1.6-1 3-4.8 4-10.7 23 22 55.3 78 8.4 100.3-40-33-87.6-57-140.4-75 68 35.2 107.4 63.5 129 87.6-11 44.3-69 46.4-90 45 4.3-2 8-4.3 9.2-8-5.3-3.8-24-.4-37.2-7.8 5-1 7.4-2 9.7-5.8-12.4-4-25.8-7.3-33.6-14 4 0 8 1 13.6-2.8-11-6-23-10.7-32.2-20 5.8 0 12 0 13.8-2-10.2-6.4-18.8-13.4-26-21 8.2 1 11.6 0 13.5-1.3-7.7-8-17.4-14.5-22-24.2 6 2 11.4 3 15.3 0-2.6-6-13.8-9.5-20.2-23.2 6.3.6 13 1.3 14.3 0-3-12-8-18.6-12.8-25.5 13.5-.2 34 0 33-1l-8.4-8.6c13.2-3.5 26.6.6 36.4 3.6 4.3-3.5 0-7.8-5.5-12.3 11.2 1.5 21.3 4 30.4 7.6 5-4.4-3-8.8-7-13.2 17.3 3.3 24.6 8 32 12.5 5-5.2.2-9.5-3.4-14zm123.8 183h3.6c33.2-.3 74.4 25 74.3 48.7-.2 21-29 38-74 37.6-44.3-.5-74-21.3-74-41.6.2-16.2 34-43.8 70-44.6zm-107 14.2c6.7 0 13.4.6 20.3 1.8 23 4-111 121-113 95-2-60.8 39.4-97 92.8-96.8zm214 2c53.5-.3 94.8 36 93 96.7-2.2 26-136.2-91-113-95 6.8-1.2 13.5-1.7 20-1.8zM364.2 290A86 73 56 0 1 421 444a86 73 56 1 1-95-143.7A86 73 56 0 1 364 290zm-167.5 4a73 86 34 0 1 38.3 10.3 73 86 34 0 1-95 143.7 73 86 34 0 1 56.7-154zm287.3 44c1 0 2 0 3.2.4 60.4 34.5 50 111.3 17.3 137.5-28.7 12.7-52.2-137.5-20.5-138zm-414.3 2c31.6.5 8 150.7-20.6 138C16.2 451.6 5.7 375 66 340.3c1.2-.3 2.3-.4 3.3-.4zm214.3 103.3a81.4 75 0 0 1 79.5 75.4 81.4 75 0 1 1-162.8 0 81.4 75 0 0 1 83.3-75.4zm178 28.3c6.3-.2 12.3 1.6 17.7 5.8 14.4 14.4 23 68.6-2.4 101-34.8 48.4-82 50.3-99.5 36.8-18.4-17.3-4.3-71 21-100.6 21.5-24.5 44.2-42.5 63.3-43zM93.8 483c21-.3 46.8 16.2 67.7 40.5 23.3 28 34 77.3 14.4 91.8-18.4 11-63 6.5-94.8-39-21.4-38.3-18.6-77.2-3.6-88.6 5-3 10.4-4.5 16.3-4.6zm194.7 134.4c31.8.2 70.3 11.6 70.4 26.5.4 15.3-40 50-79 49.4-40.4 1.8-80-33-79.5-45.2-.6-17.7 49.3-31.5 81.7-30.7 2 0 4.2-.2 6.3 0z"/>
</svg>
