<svg xmlns="http://www.w3.org/2000/svg" width="306" height="256">
  <path fill="#fff" d="M176.4 0a6 6 0 0 0-6 4.3l-22 69.8a6 6 0 0 0 0 4.3c-37.6.7-71.4 11.4-95.4 28-5.5-6.4-13.7-10.6-23-10.6-16.5 0-30 13.5-30 30 0 12.4 7.3 23 18 27.6-1.2 4.5-1.8 9-1.8 13.8 0 49.2 61 89 136.2 89 75.2 0 136-39.8 136-89 0-4.4-.4-9-1.4-13.2l.7-.3c11-4.5 18.5-16 18.3-27.7 0-4.7-1-9.5-3.2-13.7-5.2-10.3-16.8-17-28.4-16.2-8.5.3-16.5 4.6-21.8 11.2-23.4-16.6-56.2-27.3-92.8-28.6a6 6 0 0 0 .2-.6l20.4-64.4L235 26.2a6 6 0 0 0 2.2 0C238 39 248.2 49 261 49c13 0 23.6-10.6 23.6-23.7 0-13-10.6-23.6-23.7-23.6-9.6 0-17.7 5.6-21.5 13.6a6 6 0 0 0-1.7-.7L177.6.3a6 6 0 0 0-1.2-.3zM200 201.7a6 6 0 0 1 4.4 10.7c-13.7 13.7-34 15.7-50.5 15.8a6 6 0 0 1-.8 0 6 6 0 0 1-.3 0h-1.1c-16.4 0-36.7-2.2-50.3-15.8a6 6 0 0 1 4.2-10.6 6 6 0 0 1 4.3 2c9.8 9.7 27.3 12.3 42.6 12.3a6 6 0 0 1 .2 0c15.3 0 32.7-2.5 42.5-12.3a6 6 0 0 1 4.3-2z"/>
  <path fill="#ff4500" d="M127 149.8c0 12.2-9.8 22-22 22-12 0-22-9.8-22-22s10-22 22-22c12.2 0 22 9.8 22 22M223 149.8c0 12.2-9.8 22-22 22-12 0-22-9.8-22-22s10-22 22-22c12.2 0 22 9.8 22 22"/>
</svg>
