<svg xmlns="http://www.w3.org/2000/svg" width="256" height="256"><path d="M120 30.2a7.6 7.6 0 0 1 15.2 0 7.6 7.6 0 0 1-15.2 0M29.2 99a7.6 7.6 0 0 1 15.2 0 7.6 7.6 0 0 1-15.2 0m181.6.3a7.6 7.6 0 0 1 15.2 0 7.6 7.6 0 0 1-15.2 0M51.2 109.8a7 7 0 0 0 3.6-9.1L51.4 93h13.3V153H37.9a93.7 93.7 0 0 1-3-35.8zm55.6 1.5V93.7h31.6c1.6 0 11.5 1.9 11.5 9.3 0 6.1-7.6 8.3-13.8 8.3zm-43.2 95a7.6 7.6 0 0 1 15.2 0 7.6 7.6 0 0 1-15.2 0m112.8.3a7.6 7.6 0 0 1 15.2 0 7.6 7.6 0 0 1-15.2 0m2.3-17.2a7 7 0 0 0-8.2 5.3l-3.8 17.8a93.7 93.7 0 0 1-78.2-.3l-3.8-17.9a7 7 0 0 0-8.2-5.3l-15.8 3.4a93.7 93.7 0 0 1-8-9.6h76.5c.8 0 1.4-.2 1.4-1v-27c0-.8-.6-1-1.4-1h-22.4v-17.1H131c2.2 0 11.8.6 14.9 12.9 1 3.7 3 16 4.5 20 1.4 4.4 7.3 13.2 13.6 13.2h39.5a93.7 93.7 0 0 1-8.7 10zm42.5-71.5a93.7 93.7 0 0 1 .2 16.2h-9.6c-1 0-1.3.7-1.3 1.6v4.4c0 10.4-5.9 12.7-11 13.2-5 .6-10.3-2-11-5-2.9-16.2-7.7-19.7-15.3-25.7 9.4-6 19.2-14.8 19.2-26.6 0-12.7-8.7-20.8-14.7-24.7a41.7 41.7 0 0 0-20-6.6H58.1A93.7 93.7 0 0 1 110.6 35l11.7 12.3a7 7 0 0 0 9.8.2l13.2-12.5a93.7 93.7 0 0 1 64 45.7l-8.9 20.2a7 7 0 0 0 3.5 9.2zm22.4.3l-.3-3.1 9.2-8.7c2-1.7 1.2-5.2-1.2-6.1l-11.8-4.5-1-3 7.5-10.2c1.5-2.1 0-5.4-2.5-5.9l-12.4-2-1.5-2.8 5.2-11.5c1-2.3-.9-5.3-3.5-5.2l-12.6.4-2-2.4 2.9-12.3c.6-2.5-2-5-4.5-4.5l-12.3 3-2.4-2 .4-12.7c.1-2.6-2.9-4.6-5.2-3.5L184 26.4l-2.8-1.5-2-12.4c-.4-2.6-3.8-4-5.8-2.4l-10.3 7.3-3-.9-4.5-11.8c-.9-2.4-4.4-3.1-6.1-1.3l-8.7 9.3-3-.3-6.7-10.8c-1.4-2.1-5-2.1-6.3 0l-6.7 10.8-3.1.3-8.7-9.3c-1.7-1.8-5.2-1.1-6.1 1.3l-4.5 11.8-3 1L82.6 10c-2.1-1.6-5.5-.2-5.9 2.4l-2 12.4-2.8 1.5-11.5-5.2c-2.3-1-5.3 1-5.2 3.5l.4 12.6-2.4 2-12.3-2.9c-2.5-.6-5 2-4.5 4.5l3 12.3-2 2.4-12.7-.4c-2.6 0-4.6 2.9-3.5 5.2L26.4 72 25 74.7l-12.4 2c-2.6.5-4 3.8-2.4 5.9l7.3 10.2-.9 3-11.8 4.5c-2.4.9-3.1 4.4-1.2 6.1l9.2 8.7-.3 3.1-10.8 6.7c-2.1 1.3-2.1 5 0 6.3l10.8 6.6.3 3.1-9.2 8.7c-2 1.7-1.2 5.2 1.2 6.1l11.8 4.5 1 3-7.4 10.3c-1.5 2-.2 5.4 2.4 5.8l12.4 2 1.5 2.8-5.2 11.5c-1 2.3 1 5.3 3.5 5.2l12.6-.4 2 2.4-2.9 12.3c-.6 2.5 2 5 4.5 4.5l12.3-3 2.4 2-.4 12.7c-.1 2.6 2.9 4.6 5.2 3.5l11.5-5.2 2.8 1.5 2 12.4c.4 2.6 3.8 4 5.9 2.5l10.2-7.4 3 .9 4.5 11.8c.9 2.4 4.4 3.1 6.1 1.2l8.7-9.2 3.1.3 6.7 10.8c1.3 2.1 5 2.1 6.3 0l6.6-10.8 3.1-.3 8.7 9.2c1.7 2 5.2 1.2 6.1-1.2l4.5-11.8 3-1 10.3 7.5c2 1.4 5.4 0 5.8-2.5l2-12.4 2.8-1.5 11.5 5.2c2.3 1 5.3-1 5.2-3.5l-.4-12.6 2.4-2 12.3 2.9c2.5.6 5-2 4.5-4.5l-3-12.3 2-2.4 12.7.4c2.6.1 4.6-2.9 3.5-5.2l-5.2-11.5 1.5-2.8 12.4-2c2.6-.4 4-3.8 2.4-5.8l-7.3-10.3.9-3 11.8-4.5c2.4-.9 3.1-4.4 1.2-6.1l-9.2-8.7.3-3 10.8-6.7c2.1-1.4 2.1-5 0-6.3z"/></svg>