<svg xmlns="http://www.w3.org/2000/svg" width="256" height="256"><path fill="#fff" d="M166.4 145.2c0 21.6-17.6 38.4-38.4 38.4-20.8 0-38.4-16.8-38.4-38.4 0-21.6 17.6-38.4 38.4-38.4 21.6.8 38.4 17.6 38.4 38.4zM256 86v119.2c0 18.4-15.2 34.4-34.4 34.4H34.4C15.2 239.6 0 224.4 0 205.2v-120c0-18.4 15.2-34.4 34.4-34.4H64l6.4-18.4c3.2-8.8 13.6-16 23.2-16h68.8c9.6 0 20 7.2 23.2 16l6.4 19.2h29.6c19.2 0 34.4 15.2 34.4 34.4zm-68.8 60c0-32.8-26.4-60-60-60-32.8 0-60 27.2-60 60s26.4 60 60 60c33.6-.8 60-27.2 60-60z"/></svg>